<?xml version="1.0" standalone="no"?>
<!DOCTYPE svg PUBLIC "-//W3C//DTD SVG 20010904//EN"
 "http://www.w3.org/TR/2001/REC-SVG-20010904/DTD/svg10.dtd">
<svg version="1.0" xmlns="http://www.w3.org/2000/svg"
 width="123.000000pt" height="70.000000pt" viewBox="0 0 123.000000 70.000000"
 preserveAspectRatio="xMidYMid meet">

<g transform="translate(0.000000,70.000000) scale(0.100000,-0.100000)"
fill="#000000" stroke="none">
<path d="M963 675 c-25 -18 -30 -44 -11 -63 8 -8 7 -28 -7 -79 -10 -37 -21
-72 -26 -77 -4 -5 -35 -9 -68 -10 -55 -1 -63 -4 -98 -38 -37 -36 -39 -37 -51
-18 -15 24 -85 44 -130 36 -18 -3 -53 -14 -76 -26 -40 -19 -44 -19 -75 -4 -75
38 -211 -9 -226 -77 -10 -45 13 -123 45 -156 15 -15 45 -33 67 -39 36 -10 38
-13 35 -46 -4 -41 14 -53 53 -38 27 10 34 30 10 30 -31 0 -10 48 34 79 27 20
32 20 63 7 18 -8 45 -17 59 -20 22 -5 25 -10 21 -34 -5 -37 15 -54 53 -44 36
10 44 29 13 34 -30 4 -26 34 8 61 13 10 31 32 40 48 l15 30 29 -29 c16 -17 49
-34 74 -41 38 -9 46 -15 46 -35 0 -32 24 -50 55 -42 30 8 32 21 5 36 -29 15
-25 27 14 40 19 6 51 29 70 51 31 33 36 46 36 87 0 28 -8 59 -18 77 l-18 30
62 71 c34 39 65 81 69 93 4 13 15 21 29 21 30 0 48 22 44 52 -7 51 -108 27
-108 -26 0 -42 -111 -189 -136 -179 -11 4 -11 9 0 31 8 15 19 47 26 71 6 24
21 56 32 71 27 37 21 74 -12 78 -14 1 -35 -4 -47 -13z"/>
</g>
</svg>
