<?xml version="1.0" standalone="no"?>
<!DOCTYPE svg PUBLIC "-//W3C//DTD SVG 20010904//EN"
 "http://www.w3.org/TR/2001/REC-SVG-20010904/DTD/svg10.dtd">
<svg version="1.0" xmlns="http://www.w3.org/2000/svg"
 width="172.000000pt" height="337.000000pt" viewBox="0 0 172.000000 337.000000"
 preserveAspectRatio="xMidYMid meet">

<g transform="translate(0.000000,337.000000) scale(0.100000,-0.100000)"
fill="#000000" stroke="none">
<path d="M853 3305 c-13 -9 -25 -32 -29 -53 -4 -20 -19 -53 -34 -72 -33 -43
-54 -80 -80 -142 -10 -27 -26 -48 -34 -48 -39 0 -191 -173 -255 -289 l-27 -50
-44 172 c-47 186 -78 273 -115 321 -13 17 -25 47 -27 66 -2 25 -10 38 -30 50
-26 14 -29 14 -53 -11 -35 -34 -37 -85 -5 -111 15 -12 32 -17 45 -14 47 12 72
-45 150 -334 13 -47 30 -104 38 -127 9 -23 14 -50 12 -60 -2 -10 -4 -23 -4
-29 -1 -6 -14 -28 -31 -49 -16 -21 -30 -49 -30 -62 0 -13 -4 -32 -10 -42 -32
-60 -100 -539 -121 -846 -16 -240 10 -713 45 -825 19 -62 93 -205 135 -263 63
-85 136 -87 190 -5 l23 36 79 -59 c44 -33 86 -71 95 -84 29 -45 186 -161 339
-251 142 -84 153 -89 205 -88 91 2 193 39 225 82 17 23 20 43 20 134 l0 108
28 11 c51 21 109 105 122 177 7 41 -14 117 -67 241 -64 149 -94 201 -191 330
-66 87 -174 220 -197 241 -42 39 -146 174 -184 238 -26 45 -52 82 -56 82 -5 0
48 116 117 258 181 373 206 437 279 720 50 197 66 366 44 483 -12 67 -39 93
-84 83 -57 -12 -169 -75 -221 -125 -57 -54 -65 -58 -65 -30 0 32 -24 42 -81
36 -51 -6 -154 -36 -191 -56 -23 -12 -23 -8 2 37 38 67 74 104 100 104 53 1
96 65 68 102 -19 26 -68 32 -95 13z m55 -47 c-3 -7 -11 -13 -18 -13 -7 0 -15
6 -17 13 -3 7 4 12 17 12 13 0 20 -5 18 -12z m-738 -52 c0 -7 -7 -19 -15 -26
-12 -10 -15 -9 -15 7 0 11 3 23 7 26 11 12 23 8 23 -7z m1203 -66 c13 -48 2
-279 -17 -365 -19 -83 -93 -351 -106 -380 -5 -11 -25 -58 -44 -105 -19 -47
-95 -211 -169 -365 -124 -258 -167 -370 -167 -436 0 -26 53 -124 120 -224 26
-38 72 -113 102 -165 30 -52 116 -198 190 -325 117 -200 178 -321 178 -355 0
-6 -7 -10 -15 -10 -21 0 -19 -17 5 -30 18 -10 20 -21 20 -115 0 -98 -1 -105
-25 -123 -35 -28 -146 -56 -187 -48 -18 4 -57 22 -85 41 -29 19 -54 35 -56 35
-2 0 -37 19 -78 43 -170 97 -279 198 -330 305 -32 69 -49 73 -49 11 l0 -41
-30 24 c-41 32 -45 55 -16 115 30 61 60 206 76 358 6 61 20 202 31 315 24 232
30 682 11 760 -10 43 -78 357 -89 410 -6 30 12 58 141 218 173 215 377 409
481 458 39 19 76 33 84 31 8 -1 19 -18 24 -37z m-368 -107 c-4 -16 -8 -32 -9
-38 -1 -5 -37 -46 -80 -90 -73 -75 -189 -218 -265 -329 -18 -26 -36 -45 -39
-42 -3 4 0 12 6 18 7 7 12 33 12 60 0 60 102 367 127 383 41 24 171 64 212 64
42 1 43 0 36 -26z m-365 -215 c-23 -67 -44 -151 -47 -184 l-6 -62 -36 25 c-30
20 -46 24 -94 21 -31 -2 -57 0 -57 5 0 4 4 7 10 7 5 0 16 13 25 29 36 70 231
299 243 286 2 -2 -15 -59 -38 -127z m-128 -259 c30 -13 62 -61 83 -124 37
-108 75 -262 75 -305 0 -25 5 -63 10 -85 23 -101 17 -517 -11 -760 -5 -49 -16
-155 -24 -235 -26 -265 -67 -436 -101 -423 -10 4 -14 -4 -14 -28 0 -18 -11
-52 -25 -76 -22 -37 -31 -43 -59 -43 -76 0 -163 163 -201 375 -35 202 -43 708
-15 955 5 47 14 128 20 180 17 165 21 182 35 170 9 -7 21 -7 41 1 30 12 29 13
-20 24 -28 6 -28 7 -22 56 4 27 16 86 27 130 17 71 27 90 72 140 54 62 79 71
129 48z m499 -1004 c27 -56 57 -95 208 -265 31 -36 86 -103 121 -150 35 -47
75 -101 90 -120 40 -53 83 -129 109 -190 13 -30 31 -73 41 -95 52 -119 57
-159 29 -224 -31 -72 -99 -122 -99 -72 0 41 -62 166 -189 381 -74 124 -145
245 -159 270 -14 25 -58 95 -97 155 -40 61 -89 140 -109 177 l-37 67 21 82
c11 45 20 85 21 88 0 3 5 -5 11 -19 6 -14 24 -52 39 -85z"/>
<path d="M380 2363 c-29 -37 -24 -77 12 -81 60 -7 119 56 88 93 -21 25 -76 19
-100 -12z m45 -23 c3 -5 1 -10 -4 -10 -6 0 -11 5 -11 10 0 6 2 10 4 10 3 0 8
-4 11 -10z"/>
</g>
</svg>
