<?xml version="1.0" standalone="no"?>
<!DOCTYPE svg PUBLIC "-//W3C//DTD SVG 20010904//EN"
 "http://www.w3.org/TR/2001/REC-SVG-20010904/DTD/svg10.dtd">
<svg version="1.0" xmlns="http://www.w3.org/2000/svg"
 width="91.000000pt" height="88.000000pt" viewBox="0 0 91.000000 88.000000"
 preserveAspectRatio="xMidYMid meet">

<g transform="translate(0.000000,88.000000) scale(0.100000,-0.100000)"
fill="#000000" stroke="none">
<path d="M405 768 c-11 -6 -32 -22 -47 -36 -24 -22 -28 -34 -28 -79 0 -51 -1
-53 -21 -43 -25 14 -141 15 -166 2 -26 -14 -47 -93 -39 -145 9 -58 52 -98 134
-126 34 -11 70 -21 80 -21 15 -1 14 -3 -4 -18 -12 -10 -26 -27 -33 -39 -16
-31 -14 -155 3 -179 10 -14 11 -22 4 -32 -8 -10 -7 -17 4 -28 13 -13 23 -13
89 2 81 18 113 40 131 89 l11 32 42 -31 c23 -18 67 -43 98 -55 32 -13 57 -30
57 -37 0 -22 14 -17 47 19 31 31 32 34 29 114 -2 70 -6 88 -29 120 -15 21 -36
44 -47 51 -22 14 -27 32 -7 32 25 0 114 69 127 99 17 42 7 71 -41 120 -39 39
-45 41 -100 41 -32 0 -69 -4 -82 -9 -24 -9 -26 -7 -37 37 -15 63 -34 89 -69
97 -16 3 -32 13 -35 21 -6 17 -43 18 -71 2z m153 -351 c29 -27 28 -58 -3 -95
-22 -26 -31 -29 -82 -30 -86 -1 -117 39 -77 97 43 60 113 73 162 28z"/>
</g>
</svg>
