<?xml version="1.0" standalone="no"?>
<!DOCTYPE svg PUBLIC "-//W3C//DTD SVG 20010904//EN"
 "http://www.w3.org/TR/2001/REC-SVG-20010904/DTD/svg10.dtd">
<svg version="1.0" xmlns="http://www.w3.org/2000/svg"
 width="106.000000pt" height="70.000000pt" viewBox="0 0 106.000000 70.000000"
 preserveAspectRatio="xMidYMid meet">

<g transform="translate(0.000000,70.000000) scale(0.100000,-0.100000)"
fill="#000000" stroke="none">
<path d="M684 673 c-26 -28 -54 -108 -54 -155 0 -25 -9 -32 -87 -72 -49 -24
-105 -56 -126 -70 -40 -28 -62 -32 -72 -16 -10 16 -104 12 -136 -7 -29 -17
-59 -67 -59 -98 0 -57 59 -100 128 -93 l39 3 -1 -57 c-1 -72 20 -98 87 -105
54 -6 114 23 141 69 24 40 24 112 1 138 -22 25 -28 19 115 114 71 47 120 74
130 70 49 -20 85 -15 128 15 94 69 66 151 -51 151 -43 0 -43 0 -39 34 2 19 -3
49 -13 70 -16 33 -21 36 -62 36 -35 0 -49 -6 -69 -27z m96 -37 c11 -22 10 -30
-12 -69 -32 -56 -24 -75 23 -58 35 12 125 5 135 -11 3 -5 -1 -19 -9 -32 -18
-28 -89 -41 -121 -23 -12 6 -27 10 -34 8 -24 -4 -166 -104 -234 -163 l-66 -59
23 -23 c29 -29 42 -73 28 -95 -16 -26 -99 -64 -122 -56 -17 5 -21 15 -21 51 0
25 7 61 15 81 8 19 15 37 15 38 0 2 -17 -1 -37 -6 -51 -12 -101 -10 -143 4
-29 10 -35 17 -35 42 0 24 7 34 40 52 48 27 75 29 121 7 30 -14 37 -15 52 -2
9 8 78 45 153 82 l137 68 -5 56 c-4 51 -2 61 24 94 33 43 55 48 73 14z"/>
</g>
</svg>
