<?xml version="1.0" standalone="no"?>
<!DOCTYPE svg PUBLIC "-//W3C//DTD SVG 20010904//EN"
 "http://www.w3.org/TR/2001/REC-SVG-20010904/DTD/svg10.dtd">
<svg version="1.0" xmlns="http://www.w3.org/2000/svg"
 width="253.000000pt" height="559.000000pt" viewBox="0 0 253.000000 559.000000"
 preserveAspectRatio="xMidYMid meet">

<g transform="translate(0.000000,559.000000) scale(0.100000,-0.100000)"
fill="#000000" stroke="none">
<path d="M907 5529 c-31 -18 -48 -66 -48 -142 -1 -90 7 -123 38 -164 13 -18
35 -56 48 -85 l24 -53 -34 -34 c-37 -35 -54 -65 -80 -141 -9 -24 -26 -55 -38
-68 -21 -22 -22 -32 -21 -171 0 -108 4 -160 16 -192 8 -24 21 -82 28 -129 7
-47 16 -94 21 -106 8 -22 -2 -47 -17 -43 -9 2 -31 -5 -109 -38 -86 -36 -167
-113 -209 -200 -30 -59 -66 -191 -66 -240 0 -17 -4 -34 -9 -37 -4 -3 -14 -40
-20 -83 -7 -43 -24 -130 -37 -193 -25 -120 -29 -222 -15 -374 6 -69 10 -81 34
-102 35 -30 98 -33 126 -5 29 29 67 119 86 204 19 88 102 260 128 265 8 2 20
-5 25 -15 15 -28 27 -207 27 -403 -1 -162 -3 -182 -28 -265 -15 -49 -32 -103
-37 -120 -5 -16 -16 -50 -25 -75 -54 -143 -82 -301 -90 -508 -7 -147 -2 -200
30 -342 25 -112 58 -137 113 -82 51 49 69 86 107 212 53 179 82 257 117 320
76 138 213 260 291 260 l30 0 -7 -63 c-5 -53 -3 -72 15 -113 20 -45 21 -59 16
-224 -4 -116 -14 -224 -30 -320 -35 -206 -54 -363 -72 -610 -24 -327 -29 -355
-94 -543 -46 -133 -70 -185 -127 -272 -68 -107 -85 -141 -78 -159 16 -41 109
-25 224 37 57 31 104 70 192 158 75 75 119 128 123 146 11 48 55 155 89 218
19 33 39 85 46 115 7 30 21 81 31 112 11 32 19 68 19 81 0 14 13 67 30 118 57
178 65 241 75 584 5 166 3 235 -9 330 -9 66 -19 161 -22 210 l-5 90 36 -67
c31 -60 41 -70 88 -93 97 -45 118 -34 196 107 56 103 78 185 115 433 14 88 37
221 51 295 21 104 28 166 28 270 1 128 0 138 -28 198 -34 76 -64 102 -116 102
-40 0 -66 -24 -102 -96 -20 -40 -64 -218 -78 -319 -6 -44 -13 -84 -16 -88 -8
-13 -20 10 -38 68 -8 28 -30 75 -49 106 -19 31 -44 88 -57 125 -12 38 -32 83
-44 99 -30 42 -55 121 -59 189 -5 94 27 192 124 386 38 74 80 160 93 192 34
77 67 215 67 281 0 65 -32 177 -58 200 -75 68 -229 59 -320 -19 -44 -38 -53
-69 -26 -89 15 -11 14 -14 -11 -31 -48 -33 -125 -106 -125 -119 0 -6 -11 -21
-24 -34 l-23 -22 -20 48 c-35 82 -42 114 -57 265 -13 123 -20 156 -44 205 -16
32 -35 79 -42 105 -20 75 -71 118 -143 121 -43 2 -44 3 -55 44 -6 22 -25 65
-43 94 -43 73 -52 178 -20 239 33 63 25 86 -22 59z m185 -480 c13 -5 34 -26
47 -45 19 -28 21 -37 11 -49 -7 -8 -20 -15 -29 -15 -24 0 -41 -20 -41 -48 0
-22 3 -23 43 -17 40 6 45 4 61 -20 10 -15 20 -42 22 -59 3 -17 7 -42 10 -55 3
-14 8 -56 11 -94 3 -40 13 -82 23 -101 10 -17 22 -58 25 -91 4 -33 15 -81 25
-107 15 -39 15 -48 4 -52 -8 -3 -14 -15 -14 -26 0 -34 63 -24 107 17 7 6 22
15 33 18 11 3 35 30 55 58 19 29 53 71 75 95 42 45 47 65 28 108 -11 25 -10
29 20 54 33 28 76 43 147 55 35 5 46 2 77 -22 20 -15 41 -36 47 -45 6 -10 13
-70 16 -135 7 -164 -14 -229 -148 -448 -54 -90 -94 -176 -124 -270 -22 -66
-21 -233 1 -280 9 -18 23 -63 31 -101 31 -138 49 -196 63 -201 19 -8 116 -160
132 -208 7 -22 22 -52 33 -67 l20 -26 24 26 c13 14 21 32 18 40 -3 8 4 41 16
73 18 49 21 73 17 146 -5 76 -2 97 19 153 13 36 28 69 33 74 6 6 10 17 10 27
0 24 49 69 75 69 29 0 38 -12 65 -90 30 -88 38 -246 17 -338 -8 -37 -18 -95
-21 -129 -3 -34 -14 -106 -25 -160 -11 -54 -22 -120 -26 -148 -22 -179 -67
-327 -130 -425 -40 -63 -49 -71 -68 -65 -12 4 -37 9 -55 12 -46 7 -95 79 -136
198 l-7 20 -16 -20 c-13 -17 -14 -43 -9 -155 3 -74 13 -198 21 -274 21 -199
13 -437 -20 -604 -26 -129 -67 -289 -90 -352 -28 -75 -55 -167 -55 -186 0 -11
-27 -74 -60 -141 -33 -67 -64 -140 -69 -163 -10 -43 -62 -110 -117 -148 -18
-12 -37 -28 -41 -35 -12 -21 -154 -120 -173 -122 -9 0 -30 -11 -45 -23 -34
-27 -49 -24 -53 11 -2 18 1 27 11 27 8 0 31 33 52 73 21 39 43 79 50 87 7 8
18 35 25 60 7 25 30 97 52 160 49 143 67 227 72 338 14 282 29 452 42 494 9
26 15 69 13 95 -3 56 9 150 23 177 5 10 16 113 24 229 11 165 18 213 29 220
21 11 19 28 -11 94 -20 45 -25 69 -21 106 3 33 0 53 -9 62 -8 7 -19 26 -24 40
-10 26 -13 27 -52 21 -61 -10 -198 -104 -221 -150 -9 -20 -34 -55 -56 -79 -48
-52 -72 -100 -115 -225 -19 -53 -47 -135 -63 -182 -74 -210 -119 -235 -145
-80 -20 113 -14 516 8 584 9 28 20 55 25 60 5 6 9 18 9 28 0 11 9 36 20 57 10
21 17 41 13 44 -3 3 11 38 31 77 20 40 36 78 36 86 0 7 13 20 29 29 17 8 43
31 58 52 26 34 28 43 28 132 0 122 -23 328 -41 362 -7 15 -18 49 -24 75 -6 27
-19 57 -28 67 -9 10 -18 30 -20 45 -4 34 -10 40 -47 48 -41 8 -71 -17 -124
-106 -38 -65 -131 -307 -131 -343 0 -8 -9 -22 -19 -31 -46 -42 -83 30 -63 121
6 27 16 127 22 223 6 96 15 208 21 248 5 40 9 95 9 123 0 28 5 59 10 69 6 11
15 43 20 72 15 80 53 147 123 221 56 58 69 66 98 65 51 -1 114 19 150 49 35
30 34 25 4 173 -8 41 -15 101 -15 132 0 42 -4 59 -16 66 -14 8 -16 28 -13 139
4 144 11 162 62 160 18 0 44 7 60 17 26 17 26 19 10 32 -10 7 -25 14 -35 14
-20 0 -13 35 13 64 10 10 25 33 34 52 21 44 51 55 97 33z m681 -1882 c22 -37
37 -70 34 -73 -11 -12 -88 131 -86 160 0 6 3 4 6 -4 3 -8 24 -46 46 -83z
m-892 -227 c13 -118 6 -163 -34 -196 -12 -11 -17 -12 -10 -4 7 10 10 78 8 215
-2 205 4 270 17 155 4 -36 12 -112 19 -170z"/>
</g>
</svg>
