<?xml version="1.0" standalone="no"?>
<!DOCTYPE svg PUBLIC "-//W3C//DTD SVG 20010904//EN"
 "http://www.w3.org/TR/2001/REC-SVG-20010904/DTD/svg10.dtd">
<svg version="1.0" xmlns="http://www.w3.org/2000/svg"
 width="235.000000pt" height="552.000000pt" viewBox="0 0 235.000000 552.000000"
 preserveAspectRatio="xMidYMid meet">

<g transform="translate(0.000000,552.000000) scale(0.100000,-0.100000)"
fill="#000000" stroke="none">
<path d="M771 5494 c-25 -32 -35 -96 -27 -175 6 -50 16 -77 56 -143 52 -84 60
-110 35 -120 -27 -10 -81 -109 -114 -209 -27 -84 -32 -112 -33 -210 -1 -103 1
-116 25 -162 26 -51 45 -141 42 -205 -1 -19 -2 -51 -3 -71 -2 -42 -14 -49 -59
-37 -48 13 -99 97 -122 202 -20 95 -38 128 -84 156 -41 25 -44 25 -128 -7
-112 -44 -127 -61 -144 -168 -21 -129 -19 -206 6 -268 47 -114 63 -145 113
-212 37 -49 61 -95 81 -155 56 -173 101 -227 197 -239 43 -5 54 -11 64 -31 64
-135 59 -494 -8 -636 -19 -42 -39 -53 -64 -36 -18 12 -59 91 -117 222 -66 151
-62 138 -87 280 -21 120 -33 155 -56 164 -30 12 -43 -8 -63 -92 -29 -126 -41
-258 -41 -449 0 -143 4 -182 24 -264 19 -78 95 -271 148 -376 30 -61 187 -153
260 -153 42 0 51 4 137 64 45 31 59 30 41 -3 -6 -12 -8 -26 -5 -31 13 -21 35
-8 66 36 72 106 195 203 256 204 30 0 40 -39 53 -210 11 -155 6 -298 -15 -420
-18 -108 -52 -331 -60 -390 -5 -42 -11 -121 -35 -435 -13 -169 -33 -284 -65
-364 -14 -36 -25 -69 -25 -74 0 -27 -81 -192 -137 -280 -63 -100 -76 -143 -48
-153 22 -9 158 65 300 162 128 87 173 135 233 249 21 40 151 417 217 630 34
108 65 316 65 430 0 28 6 88 14 135 8 47 17 148 21 225 11 242 20 336 31 343
6 4 14 43 17 87 3 44 14 103 24 130 17 46 21 50 54 53 44 4 60 -14 84 -88 10
-30 36 -102 60 -160 23 -58 48 -123 54 -145 40 -130 68 -180 109 -196 34 -13
61 6 84 59 19 42 20 58 14 176 -14 257 -56 464 -129 628 -27 60 -132 204 -177
242 -33 28 -120 56 -172 56 -63 0 -117 95 -153 266 -14 65 -30 121 -36 124 -5
4 -7 14 -3 23 7 20 9 20 37 6 15 -7 12 -1 -11 20 -18 17 -36 31 -41 31 -14 0
-24 -101 -16 -148 3 -22 13 -43 21 -46 21 -8 36 -53 40 -119 4 -72 37 -147 65
-147 11 0 32 -6 47 -14 15 -7 45 -17 67 -20 22 -4 58 -17 80 -29 61 -34 165
-166 229 -291 54 -105 58 -119 81 -263 25 -153 38 -483 21 -511 -9 -16 -51
-16 -63 1 -6 6 -15 30 -21 52 -6 22 -22 72 -37 110 -14 39 -38 106 -52 149
-28 91 -92 229 -121 265 l-20 24 -48 -24 c-66 -33 -81 -68 -100 -225 -8 -71
-19 -156 -25 -189 -5 -33 -14 -87 -20 -120 -9 -57 -25 -283 -32 -465 -2 -47
-11 -123 -21 -170 -9 -47 -23 -120 -30 -162 -7 -43 -18 -83 -23 -90 -5 -7 -18
-42 -28 -77 -9 -36 -23 -74 -30 -85 -8 -12 -16 -38 -19 -58 -3 -21 -8 -54 -11
-73 -3 -19 -16 -47 -29 -62 -22 -26 -46 -96 -60 -172 -12 -65 -58 -146 -122
-213 -35 -36 -64 -71 -64 -77 0 -6 -11 -11 -24 -11 -22 0 -135 -78 -165 -113
-7 -10 -18 -17 -24 -17 -6 0 -26 -15 -44 -32 -27 -26 -37 -30 -51 -22 -29 18
-25 43 12 91 20 26 36 52 36 58 0 7 16 33 35 58 19 25 35 49 35 52 0 3 11 22
25 42 13 20 32 62 41 92 9 31 22 77 30 103 8 26 14 64 14 85 0 21 5 57 10 79
5 23 12 82 14 130 3 49 10 125 16 169 6 44 15 145 20 225 9 146 21 219 59 346
33 112 44 241 37 435 -5 160 -9 184 -37 272 -17 54 -37 97 -44 97 -7 0 -29
-11 -49 -25 -20 -14 -39 -25 -43 -25 -3 0 -28 -18 -55 -40 -52 -41 -88 -50
-110 -26 -11 11 -28 -1 -105 -79 -60 -61 -102 -95 -122 -100 -32 -7 -72 9
-128 51 -17 13 -38 24 -45 24 -7 0 -20 6 -28 13 -29 23 -80 95 -80 113 0 10
-16 49 -36 87 -22 43 -45 111 -61 180 -13 62 -30 118 -36 126 -17 20 -22 270
-7 329 7 26 13 99 15 162 3 136 8 152 44 148 l26 -3 5 -121 c3 -67 10 -127 15
-135 6 -8 26 -49 45 -93 53 -124 142 -278 166 -287 30 -10 79 25 104 76 50
104 70 303 51 508 -13 134 -33 195 -65 201 -162 31 -171 39 -220 188 -41 126
-52 149 -104 214 -22 28 -43 60 -46 72 -4 12 -16 27 -27 32 -46 25 -64 111
-49 238 9 79 16 137 19 169 0 6 11 15 23 19 12 3 40 20 62 36 33 24 49 28 85
26 38 -3 49 -8 67 -35 12 -18 29 -66 38 -107 17 -76 61 -170 94 -199 10 -9 39
-20 64 -23 42 -6 48 -4 63 19 9 14 21 55 27 91 10 58 8 78 -10 154 -35 145
-45 238 -35 341 10 111 25 132 68 91 l25 -24 20 22 c30 32 25 50 -19 62 -61
16 -62 41 -6 97 40 40 53 47 96 51 47 4 52 3 79 -29 37 -43 38 -76 5 -91 -18
-8 -25 -19 -25 -39 0 -27 2 -28 25 -17 35 16 73 -3 80 -39 3 -15 13 -55 21
-88 9 -33 21 -105 28 -160 7 -56 18 -116 24 -135 6 -19 16 -54 22 -77 9 -34
15 -43 33 -43 12 0 31 -7 41 -15 11 -8 41 -15 67 -15 26 0 60 -5 75 -10 21 -8
31 -7 44 5 18 17 51 20 78 6 9 -4 33 -16 53 -25 19 -10 44 -32 54 -49 10 -18
26 -41 36 -52 10 -12 27 -48 38 -80 10 -33 46 -114 80 -180 43 -85 73 -161
101 -260 35 -126 39 -154 41 -266 1 -69 -2 -133 -7 -142 -9 -15 -12 -15 -32
-1 -12 8 -22 24 -22 34 0 10 -9 25 -20 33 -10 7 -24 25 -29 40 -7 18 -18 27
-32 27 -11 0 -37 16 -56 35 -19 19 -47 38 -62 41 -21 4 -11 -9 51 -68 43 -41
90 -97 107 -129 48 -87 87 -113 121 -79 39 39 21 229 -50 515 -32 129 -98 310
-160 437 -37 75 -116 170 -162 194 -32 17 -100 14 -181 -7 -28 -7 -49 -7 -75
2 -20 7 -44 12 -54 11 -24 -4 -76 138 -88 241 -30 244 -31 252 -61 306 -16 30
-29 60 -29 68 0 7 -7 30 -16 52 -22 55 -76 91 -137 91 -43 0 -47 2 -47 24 0
14 -19 60 -41 103 -38 71 -42 85 -42 153 -1 60 3 82 21 110 28 44 28 50 -2 50
-14 0 -33 -11 -45 -26z m55 -629 c24 -18 7 -19 -26 0 -16 9 -19 14 -9 15 8 0
24 -7 35 -15z"/>
</g>
</svg>
