<?xml version="1.0" standalone="no"?>
<!DOCTYPE svg PUBLIC "-//W3C//DTD SVG 20010904//EN"
 "http://www.w3.org/TR/2001/REC-SVG-20010904/DTD/svg10.dtd">
<svg version="1.0" xmlns="http://www.w3.org/2000/svg"
 width="289.000000pt" height="300.000000pt" viewBox="0 0 289.000000 300.000000"
 preserveAspectRatio="xMidYMid meet">

<g transform="translate(0.000000,300.000000) scale(0.100000,-0.100000)"
fill="#000000" stroke="none">
<path d="M1895 2930 c-9 -10 -18 -32 -20 -49 -1 -16 -16 -46 -32 -68 -48 -60
-68 -106 -129 -293 -69 -215 -77 -246 -70 -288 l5 -33 -29 24 c-31 26 -102 42
-143 32 -24 -6 -25 -4 -42 72 -49 224 -100 381 -147 450 -15 23 -28 55 -28 70
0 55 -49 71 -88 30 -25 -26 -30 -88 -9 -105 7 -6 30 -12 51 -14 34 -3 41 -8
62 -48 20 -39 80 -229 98 -315 4 -16 16 -54 27 -82 26 -65 20 -106 -21 -158
-17 -21 -30 -47 -30 -58 0 -11 -7 -43 -15 -71 -8 -28 -20 -70 -26 -94 l-10
-43 -36 31 c-19 17 -62 67 -94 110 -32 43 -82 96 -111 118 -29 22 -82 65 -118
96 -74 63 -200 129 -278 145 -86 18 -206 14 -286 -10 -63 -18 -78 -28 -134
-85 -62 -63 -101 -129 -102 -171 0 -32 92 -164 155 -221 30 -28 112 -85 182
-128 71 -43 151 -95 178 -115 28 -20 86 -55 130 -78 45 -22 96 -54 115 -70
l35 -29 -43 -38 c-59 -50 -107 -102 -189 -204 -37 -47 -113 -140 -169 -205
-127 -152 -197 -259 -273 -415 -79 -162 -99 -257 -79 -375 40 -249 254 -272
528 -58 40 32 122 92 182 133 59 41 159 112 222 158 63 45 117 82 120 82 3 0
6 -9 6 -20 0 -108 100 -354 179 -438 32 -36 44 -42 78 -42 25 0 50 8 65 20 30
23 122 204 142 280 8 30 15 49 15 41 1 -8 19 -38 41 -67 22 -29 40 -56 40 -59
0 -4 14 -27 31 -52 23 -33 36 -43 50 -40 12 3 28 -6 47 -26 73 -83 138 -112
227 -103 185 19 314 103 391 255 39 78 74 215 74 289 0 132 -66 253 -169 308
-25 13 -53 28 -61 33 -8 4 -37 18 -65 31 -27 13 -52 25 -54 26 -2 2 14 18 35
36 115 99 294 272 316 305 68 103 89 141 128 231 23 53 53 121 67 150 34 75
46 160 38 282 -13 209 -63 330 -161 391 -32 19 -45 21 -137 17 -82 -4 -117
-11 -179 -35 -188 -74 -486 -294 -586 -432 -31 -42 -43 -101 -22 -101 22 0 25
2 22 16 -5 23 23 61 98 135 158 155 389 303 574 365 168 58 282 -15 321 -204
40 -191 25 -355 -45 -501 -107 -223 -259 -415 -435 -548 -47 -36 -92 -75 -101
-88 -13 -21 -11 -55 5 -55 3 0 42 -20 85 -45 44 -25 85 -45 93 -45 7 0 31 -11
52 -24 113 -71 149 -201 106 -374 -31 -120 -75 -200 -145 -265 -62 -58 -107
-77 -234 -98 -74 -13 -79 -12 -119 9 -81 44 -184 160 -274 311 -12 20 -29 35
-38 35 -10 -1 -14 4 -11 15 3 9 20 153 37 321 27 260 32 346 33 585 1 257 -1
287 -21 365 -12 47 -31 133 -42 192 -12 59 -32 137 -45 173 -13 36 -20 68 -15
71 5 3 9 26 9 52 0 43 97 355 143 462 28 65 75 114 123 128 50 14 71 44 60 85
-10 39 -81 51 -111 17z m65 -39 c0 -11 -26 -22 -34 -14 -12 12 -5 23 14 23 11
0 20 -4 20 -9z m-740 -38 c-1 -21 -13 -53 -21 -53 -10 0 -12 43 -2 53 9 9 23
9 23 0z m-500 -534 c69 -28 144 -76 190 -118 19 -18 63 -53 96 -78 34 -25 85
-76 114 -114 29 -38 79 -93 111 -122 l59 -53 -16 -119 c-56 -442 -67 -657 -49
-955 l7 -126 -43 -28 c-63 -41 -318 -225 -466 -334 -155 -116 -239 -161 -314
-169 -79 -8 -113 12 -147 85 -51 112 -30 240 73 447 68 138 139 242 265 390
42 50 110 133 152 185 89 110 145 171 207 221 37 29 43 39 37 60 -9 33 -94 98
-192 147 -44 22 -94 51 -110 65 -16 13 -91 61 -166 107 -155 93 -199 128 -269
212 -75 90 -76 122 -10 206 78 98 146 124 311 118 81 -3 118 -9 160 -27z m878
-153 c31 -36 56 -101 95 -256 70 -273 73 -546 11 -1159 -31 -316 -45 -382
-100 -501 -70 -148 -95 -165 -159 -109 -50 44 -78 97 -114 214 -40 132 -52
224 -34 267 12 28 12 34 0 43 -20 15 -26 59 -33 260 -10 293 32 775 91 1047
21 95 30 114 81 174 43 50 50 54 89 54 36 0 48 -5 73 -34z"/>
<path d="M1550 1980 c-6 -12 -10 -33 -8 -48 2 -22 9 -28 34 -30 53 -5 90 63
50 90 -22 15 -65 8 -76 -12z"/>
<path d="M1398 1953 c-25 -29 -30 -59 -13 -77 20 -19 52 -9 78 26 15 21 17 30
8 47 -14 26 -52 28 -73 4z"/>
<path d="M1445 1771 c-10 -17 33 -33 55 -21 11 6 20 15 20 20 0 13 -67 13 -75
1z"/>
</g>
</svg>
